<svg width="290" height="261" viewBox="0 0 290 261" fill="none" xmlns="http://www.w3.org/2000/svg">
<mask id="mask0_5993_34889" style="mask-type:alpha" maskUnits="userSpaceOnUse" x="0" y="0" width="290" height="261">
<path d="M0 10C0 4.47717 4.47715 0 10 0H280C285.523 0 290 4.47715 290 10V250.97C290 256.493 285.523 260.97 280 260.97H10C4.47716 260.97 0 256.493 0 250.97V10Z" fill="#D9D9D9"/>
</mask>
<g mask="url(#mask0_5993_34889)">
<path d="M-77.668 -3.14063C-77.668 -8.66348 -73.1908 -13.1406 -67.668 -13.1406H339.957C345.48 -13.1406 349.957 -8.66347 349.957 -3.14062V260.359C349.957 265.882 345.48 270.359 339.957 270.359H-67.668C-73.1908 270.359 -77.668 265.882 -77.668 260.359V-3.14063Z" fill="#FDF8FE"/>
</g>
<path fill-rule="evenodd" clip-rule="evenodd" d="M166.075 143.082C173.226 143.082 179 148.952 179 156.221C179 163.49 173.226 169.359 166.075 169.359C158.924 169.359 153.15 163.49 153.15 156.221C153.15 148.952 158.924 143.082 166.075 143.082ZM115.664 95.3594H172.116C173.404 95.3594 174.558 95.9012 175.402 96.759C176.246 97.6168 176.779 98.7907 176.779 100.1V142.27C175.314 141.141 173.67 140.193 171.894 139.561V101.229C171.894 100.958 171.805 100.732 171.627 100.597C171.494 100.461 171.227 100.326 171.005 100.326H116.818C116.552 100.326 116.33 100.416 116.197 100.597C116.063 100.732 115.93 101.003 115.93 101.229V143.398L134.851 124.977C135.606 124.255 136.805 124.345 137.472 125.113C137.472 125.113 137.472 125.158 137.516 125.158L153.461 144.301C150.663 147.417 148.931 151.57 148.931 156.131C148.931 158.117 149.242 160.013 149.863 161.774H115.664C114.376 161.774 113.221 161.232 112.377 160.375C111.533 159.517 111 158.343 111 157.034V100.055C111.044 98.7456 111.577 97.6168 112.421 96.759C113.265 95.9012 114.42 95.3594 115.664 95.3594ZM154.705 142.992L156.881 129.267C157.059 128.228 157.992 127.506 159.013 127.686C159.413 127.732 159.768 127.957 160.035 128.183L170.161 139.019C168.873 138.703 167.541 138.522 166.164 138.522C161.811 138.567 157.769 140.238 154.705 142.992ZM159.457 106.15C161.323 106.15 163.01 106.918 164.21 108.137C165.453 109.401 166.164 111.071 166.164 112.968C166.164 114.864 165.409 116.58 164.21 117.799C162.966 119.063 161.323 119.785 159.457 119.785C157.592 119.785 155.904 119.018 154.705 117.799C153.461 116.534 152.75 114.864 152.75 112.968C152.75 111.071 153.506 109.356 154.705 108.137C155.948 106.918 157.636 106.15 159.457 106.15ZM161.722 148.229L173.537 161.232C174.47 159.788 175.003 158.072 175.003 156.221C175.003 151.164 171.005 147.101 166.031 147.101C164.521 147.101 163.01 147.507 161.722 148.229ZM170.383 164.212L158.569 151.209C157.636 152.654 157.103 154.37 157.103 156.221C157.103 161.278 161.101 165.341 166.075 165.341C167.63 165.341 169.095 164.935 170.383 164.212Z" fill="#DFDFDF"/>
</svg>
